<mxfile host="app.diagrams.net" modified="2023-09-08T10:01:23.633Z" agent="Mozilla/5.0 (Macintosh; Intel Mac OS X 10_15_7) AppleWebKit/537.36 (KHTML, like Gecko) Chrome/116.0.0.0 Safari/537.36" version="21.6.1" etag="g-_-ApIhnt1Zda53ZrQD" type="github">
  <diagram name="第 1 页" id="8QkVBiVWHsKTQnQI7LlZ">
    <mxGraphModel>
      <root>
        <mxCell id="0" />
        <mxCell id="1" parent="0" />
      </root>
    </mxGraphModel>
  </diagram>
</mxfile>
